<?xml version="1.0"?><svg width="100%" height="100%" viewBox="0 0 3840 1216" version="1.1" xmlns="http://www.w3.org/2000/svg" xmlns:xlink="http://www.w3.org/1999/xlink" style="fill-rule:evenodd;clip-rule:evenodd;stroke-linejoin:round;stroke-miterlimit:2;"><g transform="matrix(1,0,0,1,9.09495e-13,-472.148)"><g transform="matrix(10.0907,0,0,10.0907,-1082.22,-1547.21)"><circle cx="297.523" cy="260.359" r="16.651" id="dot" style="fill:rgb(0,187,0);"/></g><path d="M868.514,650.632C868.545,552.122 945.318,472.148 1039.88,472.148C1134.44,472.148 1211.21,552.122 1211.24,650.632L1211.24,1082.23C1211.24,1416.48 939.871,1687.85 605.62,1687.85C271.369,1687.85 -0,1416.48 -0,1082.23L0,640.541C0.031,542.031 76.804,472.148 171.363,472.148C265.923,472.148 342.696,552.122 342.727,650.632L342.727,1122.25C342.727,1267.35 460.525,1385.14 605.62,1385.14C750.715,1385.14 868.514,1267.35 868.514,1122.25L868.514,650.632ZM2349.37,1342.89C2447.88,1342.92 2527.85,1419.7 2527.85,1514.26C2527.85,1608.82 2447.88,1685.59 2349.37,1685.62L1917.77,1685.62C1583.52,1685.62 1312.15,1414.25 1312.15,1080C1312.15,745.749 1583.52,474.38 1917.77,474.38L2359.46,474.38C2457.97,474.41 2527.85,551.184 2527.85,645.743C2527.85,740.302 2447.88,817.076 2349.37,817.106L1877.75,817.106C1732.65,817.106 1614.86,934.905 1614.86,1080C1614.86,1225.1 1732.65,1342.89 1877.75,1342.89L2349.37,1342.89ZM2786.42,1077.77C2688.5,970.196 2628.76,827.206 2628.76,670.373L2628.76,650.635C2628.79,552.122 2705.56,472.148 2800.12,472.148C2894.68,472.148 2971.45,552.122 2971.49,650.635L2971.49,710.392C2971.49,853.978 3086.85,970.832 3229.86,973.242L3238.9,973.242C3381.91,970.832 3497.27,853.978 3497.27,710.392L3497.27,650.635C3497.3,552.122 3574.08,472.148 3668.64,472.148C3763.2,472.148 3839.97,552.122 3840,650.635L3840,670.373C3840,827.206 3780.26,970.196 3682.34,1077.77C3780.26,1185.34 3840,1328.33 3840,1485.16L3840,1504.9C3839.97,1603.41 3763.2,1683.39 3668.64,1683.39C3574.08,1683.39 3497.3,1603.41 3497.27,1504.9L3497.27,1445.14C3497.27,1301.56 3381.91,1184.7 3238.9,1182.3L3229.86,1182.3C3086.85,1184.7 2971.49,1301.56 2971.49,1445.14L2971.49,1504.9C2971.45,1603.41 2894.68,1683.39 2800.12,1683.39C2705.56,1683.39 2628.79,1603.41 2628.76,1504.9L2628.76,1485.16C2628.76,1328.33 2688.5,1185.34 2786.42,1077.77Z" style="fill:rgb(153,153,153);"/></g></svg>